%TF.GenerationSoftware,KiCad,Pcbnew,7.0.10*%
%TF.CreationDate,2024-01-17T15:43:09-08:00*%
%TF.ProjectId,test-1,74657374-2d31-42e6-9b69-6361645f7063,rev?*%
%TF.SameCoordinates,Original*%
%TF.FileFunction,Legend,Top*%
%TF.FilePolarity,Positive*%
%FSLAX46Y46*%
G04 Gerber Fmt 4.6, Leading zero omitted, Abs format (unit mm)*
G04 Created by KiCad (PCBNEW 7.0.10) date 2024-01-17 15:43:09*
%MOMM*%
%LPD*%
G01*
G04 APERTURE LIST*
%ADD10C,0.150000*%
%ADD11C,0.100000*%
G04 APERTURE END LIST*
D10*
X125923922Y-85229819D02*
X126257255Y-86229819D01*
X126257255Y-86229819D02*
X126590588Y-85229819D01*
X127304874Y-86182200D02*
X127209636Y-86229819D01*
X127209636Y-86229819D02*
X127019160Y-86229819D01*
X127019160Y-86229819D02*
X126923922Y-86182200D01*
X126923922Y-86182200D02*
X126876303Y-86086961D01*
X126876303Y-86086961D02*
X126876303Y-85706009D01*
X126876303Y-85706009D02*
X126923922Y-85610771D01*
X126923922Y-85610771D02*
X127019160Y-85563152D01*
X127019160Y-85563152D02*
X127209636Y-85563152D01*
X127209636Y-85563152D02*
X127304874Y-85610771D01*
X127304874Y-85610771D02*
X127352493Y-85706009D01*
X127352493Y-85706009D02*
X127352493Y-85801247D01*
X127352493Y-85801247D02*
X126876303Y-85896485D01*
X127781065Y-86229819D02*
X127781065Y-85563152D01*
X127781065Y-85753628D02*
X127828684Y-85658390D01*
X127828684Y-85658390D02*
X127876303Y-85610771D01*
X127876303Y-85610771D02*
X127971541Y-85563152D01*
X127971541Y-85563152D02*
X128066779Y-85563152D01*
X128352494Y-86182200D02*
X128447732Y-86229819D01*
X128447732Y-86229819D02*
X128638208Y-86229819D01*
X128638208Y-86229819D02*
X128733446Y-86182200D01*
X128733446Y-86182200D02*
X128781065Y-86086961D01*
X128781065Y-86086961D02*
X128781065Y-86039342D01*
X128781065Y-86039342D02*
X128733446Y-85944104D01*
X128733446Y-85944104D02*
X128638208Y-85896485D01*
X128638208Y-85896485D02*
X128495351Y-85896485D01*
X128495351Y-85896485D02*
X128400113Y-85848866D01*
X128400113Y-85848866D02*
X128352494Y-85753628D01*
X128352494Y-85753628D02*
X128352494Y-85706009D01*
X128352494Y-85706009D02*
X128400113Y-85610771D01*
X128400113Y-85610771D02*
X128495351Y-85563152D01*
X128495351Y-85563152D02*
X128638208Y-85563152D01*
X128638208Y-85563152D02*
X128733446Y-85610771D01*
X129209637Y-86229819D02*
X129209637Y-85563152D01*
X129209637Y-85229819D02*
X129162018Y-85277438D01*
X129162018Y-85277438D02*
X129209637Y-85325057D01*
X129209637Y-85325057D02*
X129257256Y-85277438D01*
X129257256Y-85277438D02*
X129209637Y-85229819D01*
X129209637Y-85229819D02*
X129209637Y-85325057D01*
X129828684Y-86229819D02*
X129733446Y-86182200D01*
X129733446Y-86182200D02*
X129685827Y-86134580D01*
X129685827Y-86134580D02*
X129638208Y-86039342D01*
X129638208Y-86039342D02*
X129638208Y-85753628D01*
X129638208Y-85753628D02*
X129685827Y-85658390D01*
X129685827Y-85658390D02*
X129733446Y-85610771D01*
X129733446Y-85610771D02*
X129828684Y-85563152D01*
X129828684Y-85563152D02*
X129971541Y-85563152D01*
X129971541Y-85563152D02*
X130066779Y-85610771D01*
X130066779Y-85610771D02*
X130114398Y-85658390D01*
X130114398Y-85658390D02*
X130162017Y-85753628D01*
X130162017Y-85753628D02*
X130162017Y-86039342D01*
X130162017Y-86039342D02*
X130114398Y-86134580D01*
X130114398Y-86134580D02*
X130066779Y-86182200D01*
X130066779Y-86182200D02*
X129971541Y-86229819D01*
X129971541Y-86229819D02*
X129828684Y-86229819D01*
X130590589Y-85563152D02*
X130590589Y-86229819D01*
X130590589Y-85658390D02*
X130638208Y-85610771D01*
X130638208Y-85610771D02*
X130733446Y-85563152D01*
X130733446Y-85563152D02*
X130876303Y-85563152D01*
X130876303Y-85563152D02*
X130971541Y-85610771D01*
X130971541Y-85610771D02*
X131019160Y-85706009D01*
X131019160Y-85706009D02*
X131019160Y-86229819D01*
X132781065Y-86229819D02*
X132209637Y-86229819D01*
X132495351Y-86229819D02*
X132495351Y-85229819D01*
X132495351Y-85229819D02*
X132400113Y-85372676D01*
X132400113Y-85372676D02*
X132304875Y-85467914D01*
X132304875Y-85467914D02*
X132209637Y-85515533D01*
D11*
X74168095Y-38597419D02*
X74168095Y-39406942D01*
X74168095Y-39406942D02*
X74215714Y-39502180D01*
X74215714Y-39502180D02*
X74263333Y-39549800D01*
X74263333Y-39549800D02*
X74358571Y-39597419D01*
X74358571Y-39597419D02*
X74549047Y-39597419D01*
X74549047Y-39597419D02*
X74644285Y-39549800D01*
X74644285Y-39549800D02*
X74691904Y-39502180D01*
X74691904Y-39502180D02*
X74739523Y-39406942D01*
X74739523Y-39406942D02*
X74739523Y-38597419D01*
X75739523Y-39597419D02*
X75168095Y-39597419D01*
X75453809Y-39597419D02*
X75453809Y-38597419D01*
X75453809Y-38597419D02*
X75358571Y-38740276D01*
X75358571Y-38740276D02*
X75263333Y-38835514D01*
X75263333Y-38835514D02*
X75168095Y-38883133D01*
%TO.C,U1*%
X69850000Y-43180000D02*
X69850000Y-46990000D01*
X69850000Y-46990000D02*
X77470000Y-46990000D01*
X77470000Y-46990000D02*
X77470000Y-43180000D01*
%TD*%
M02*
