%TF.GenerationSoftware,KiCad,Pcbnew,7.0.10*%
%TF.CreationDate,2024-01-23T18:00:44-08:00*%
%TF.ProjectId,pcb-test-3,7063622d-7465-4737-942d-332e6b696361,rev?*%
%TF.SameCoordinates,Original*%
%TF.FileFunction,Legend,Top*%
%TF.FilePolarity,Positive*%
%FSLAX46Y46*%
G04 Gerber Fmt 4.6, Leading zero omitted, Abs format (unit mm)*
G04 Created by KiCad (PCBNEW 7.0.10) date 2024-01-23 18:00:44*
%MOMM*%
%LPD*%
G01*
G04 APERTURE LIST*
%ADD10C,0.150000*%
%ADD11C,0.120000*%
G04 APERTURE END LIST*
D10*
X90146667Y-127147200D02*
X90289524Y-127194819D01*
X90289524Y-127194819D02*
X90527619Y-127194819D01*
X90527619Y-127194819D02*
X90622857Y-127147200D01*
X90622857Y-127147200D02*
X90670476Y-127099580D01*
X90670476Y-127099580D02*
X90718095Y-127004342D01*
X90718095Y-127004342D02*
X90718095Y-126909104D01*
X90718095Y-126909104D02*
X90670476Y-126813866D01*
X90670476Y-126813866D02*
X90622857Y-126766247D01*
X90622857Y-126766247D02*
X90527619Y-126718628D01*
X90527619Y-126718628D02*
X90337143Y-126671009D01*
X90337143Y-126671009D02*
X90241905Y-126623390D01*
X90241905Y-126623390D02*
X90194286Y-126575771D01*
X90194286Y-126575771D02*
X90146667Y-126480533D01*
X90146667Y-126480533D02*
X90146667Y-126385295D01*
X90146667Y-126385295D02*
X90194286Y-126290057D01*
X90194286Y-126290057D02*
X90241905Y-126242438D01*
X90241905Y-126242438D02*
X90337143Y-126194819D01*
X90337143Y-126194819D02*
X90575238Y-126194819D01*
X90575238Y-126194819D02*
X90718095Y-126242438D01*
X91051429Y-126194819D02*
X91289524Y-127194819D01*
X91289524Y-127194819D02*
X91480000Y-126480533D01*
X91480000Y-126480533D02*
X91670476Y-127194819D01*
X91670476Y-127194819D02*
X91908572Y-126194819D01*
X92813333Y-127194819D02*
X92241905Y-127194819D01*
X92527619Y-127194819D02*
X92527619Y-126194819D01*
X92527619Y-126194819D02*
X92432381Y-126337676D01*
X92432381Y-126337676D02*
X92337143Y-126432914D01*
X92337143Y-126432914D02*
X92241905Y-126480533D01*
X87733333Y-115644819D02*
X87400000Y-115168628D01*
X87161905Y-115644819D02*
X87161905Y-114644819D01*
X87161905Y-114644819D02*
X87542857Y-114644819D01*
X87542857Y-114644819D02*
X87638095Y-114692438D01*
X87638095Y-114692438D02*
X87685714Y-114740057D01*
X87685714Y-114740057D02*
X87733333Y-114835295D01*
X87733333Y-114835295D02*
X87733333Y-114978152D01*
X87733333Y-114978152D02*
X87685714Y-115073390D01*
X87685714Y-115073390D02*
X87638095Y-115121009D01*
X87638095Y-115121009D02*
X87542857Y-115168628D01*
X87542857Y-115168628D02*
X87161905Y-115168628D01*
X88685714Y-115644819D02*
X88114286Y-115644819D01*
X88400000Y-115644819D02*
X88400000Y-114644819D01*
X88400000Y-114644819D02*
X88304762Y-114787676D01*
X88304762Y-114787676D02*
X88209524Y-114882914D01*
X88209524Y-114882914D02*
X88114286Y-114930533D01*
X105484819Y-117578094D02*
X104484819Y-117578094D01*
X104484819Y-117578094D02*
X104484819Y-117339999D01*
X104484819Y-117339999D02*
X104532438Y-117197142D01*
X104532438Y-117197142D02*
X104627676Y-117101904D01*
X104627676Y-117101904D02*
X104722914Y-117054285D01*
X104722914Y-117054285D02*
X104913390Y-117006666D01*
X104913390Y-117006666D02*
X105056247Y-117006666D01*
X105056247Y-117006666D02*
X105246723Y-117054285D01*
X105246723Y-117054285D02*
X105341961Y-117101904D01*
X105341961Y-117101904D02*
X105437200Y-117197142D01*
X105437200Y-117197142D02*
X105484819Y-117339999D01*
X105484819Y-117339999D02*
X105484819Y-117578094D01*
X105484819Y-116054285D02*
X105484819Y-116625713D01*
X105484819Y-116339999D02*
X104484819Y-116339999D01*
X104484819Y-116339999D02*
X104627676Y-116435237D01*
X104627676Y-116435237D02*
X104722914Y-116530475D01*
X104722914Y-116530475D02*
X104770533Y-116625713D01*
D11*
%TO.C,SW1*%
X86870000Y-128330000D02*
X96090000Y-128330000D01*
X96590000Y-131850000D02*
X96590000Y-127830000D01*
X86370000Y-129540000D02*
X86870000Y-129540000D01*
X86370000Y-127830000D02*
X86370000Y-131850000D01*
X87370000Y-130350000D02*
X87370000Y-131850000D01*
X86370000Y-130350000D02*
X87370000Y-130350000D01*
X96590000Y-127830000D02*
X86370000Y-127830000D01*
X86070000Y-132150000D02*
X88570000Y-132150000D01*
X86870000Y-129540000D02*
X86870000Y-128330000D01*
X96590000Y-130350000D02*
X95590000Y-130350000D01*
X86070000Y-129650000D02*
X86070000Y-132150000D01*
X96090000Y-128330000D02*
X96090000Y-129540000D01*
X95590000Y-130350000D02*
X95590000Y-131850000D01*
X96090000Y-129540000D02*
X96590000Y-129540000D01*
X86370000Y-131850000D02*
X96590000Y-131850000D01*
%TO.C,R1*%
X87672936Y-116105000D02*
X88127064Y-116105000D01*
X87672936Y-117575000D02*
X88127064Y-117575000D01*
%TO.C,D1*%
X105720000Y-118700000D02*
X107640000Y-118700000D01*
X105720000Y-115840000D02*
X105720000Y-118700000D01*
X107640000Y-118700000D02*
X107640000Y-115840000D01*
%TD*%
M02*
