%TF.GenerationSoftware,KiCad,Pcbnew,7.0.10*%
%TF.CreationDate,2024-01-23T18:00:44-08:00*%
%TF.ProjectId,pcb-test-3,7063622d-7465-4737-942d-332e6b696361,rev?*%
%TF.SameCoordinates,Original*%
%TF.FileFunction,Copper,L1,Top*%
%TF.FilePolarity,Positive*%
%FSLAX46Y46*%
G04 Gerber Fmt 4.6, Leading zero omitted, Abs format (unit mm)*
G04 Created by KiCad (PCBNEW 7.0.10) date 2024-01-23 18:00:44*
%MOMM*%
%LPD*%
G01*
G04 APERTURE LIST*
G04 Aperture macros list*
%AMRoundRect*
0 Rectangle with rounded corners*
0 $1 Rounding radius*
0 $2 $3 $4 $5 $6 $7 $8 $9 X,Y pos of 4 corners*
0 Add a 4 corners polygon primitive as box body*
4,1,4,$2,$3,$4,$5,$6,$7,$8,$9,$2,$3,0*
0 Add four circle primitives for the rounded corners*
1,1,$1+$1,$2,$3*
1,1,$1+$1,$4,$5*
1,1,$1+$1,$6,$7*
1,1,$1+$1,$8,$9*
0 Add four rect primitives between the rounded corners*
20,1,$1+$1,$2,$3,$4,$5,0*
20,1,$1+$1,$4,$5,$6,$7,0*
20,1,$1+$1,$6,$7,$8,$9,0*
20,1,$1+$1,$8,$9,$2,$3,0*%
G04 Aperture macros list end*
%TA.AperFunction,ComponentPad*%
%ADD10O,1.778000X3.556000*%
%TD*%
%TA.AperFunction,ComponentPad*%
%ADD11O,1.700000X1.950000*%
%TD*%
%TA.AperFunction,ComponentPad*%
%ADD12RoundRect,0.250000X-0.600000X-0.725000X0.600000X-0.725000X0.600000X0.725000X-0.600000X0.725000X0*%
%TD*%
%TA.AperFunction,SMDPad,CuDef*%
%ADD13RoundRect,0.250000X-0.350000X-0.450000X0.350000X-0.450000X0.350000X0.450000X-0.350000X0.450000X0*%
%TD*%
%TA.AperFunction,ComponentPad*%
%ADD14C,1.700000*%
%TD*%
%TA.AperFunction,SMDPad,CuDef*%
%ADD15RoundRect,0.250000X0.450000X-0.325000X0.450000X0.325000X-0.450000X0.325000X-0.450000X-0.325000X0*%
%TD*%
%TA.AperFunction,Conductor*%
%ADD16C,0.500000*%
%TD*%
%TA.AperFunction,Conductor*%
%ADD17C,0.254000*%
%TD*%
G04 APERTURE END LIST*
D10*
%TO.P,U1,1,GPIO1_A0_D0*%
%TO.N,Net-(U1-GPIO1_A0_D0)*%
X142240000Y-92202000D03*
%TO.P,U1,2,GPIO2_A1_D1*%
%TO.N,Net-(M1--)*%
X139700000Y-92202000D03*
%TO.P,U1,3,GPIO3_A2_D2*%
%TO.N,Net-(U1-GPIO3_A2_D2)*%
X137160000Y-92202000D03*
%TO.P,U1,4,GPIO4_A3_D3*%
%TO.N,Net-(U1-GPIO4_A3_D3)*%
X134620000Y-92202000D03*
%TO.P,U1,5,GPIO4_A3_D3_SDA*%
%TO.N,unconnected-(U1-GPIO4_A3_D3_SDA-Pad5)*%
X132080000Y-92202000D03*
%TO.P,U1,6,GPIO6_A5_D5_SCL*%
%TO.N,unconnected-(U1-GPIO6_A5_D5_SCL-Pad6)*%
X129540000Y-92202000D03*
%TO.P,U1,7,GPIO43_TX_D6*%
%TO.N,unconnected-(U1-GPIO43_TX_D6-Pad7)*%
X127000000Y-92202000D03*
%TO.P,U1,8,5V*%
%TO.N,Net-(SW1-C)*%
X142240000Y-75438000D03*
%TO.P,U1,9,GND*%
%TO.N,GND*%
X139700000Y-75438000D03*
%TO.P,U1,10,3V3*%
%TO.N,unconnected-(U1-3V3-Pad10)*%
X137160000Y-75438000D03*
%TO.P,U1,11,GPIO9_A10_D10_COPI*%
%TO.N,unconnected-(U1-GPIO9_A10_D10_COPI-Pad11)*%
X134620000Y-75438000D03*
%TO.P,U1,12,GPIO8_A9_D9_CIPO*%
%TO.N,unconnected-(U1-GPIO8_A9_D9_CIPO-Pad12)*%
X132080000Y-75438000D03*
%TO.P,U1,13,GPIO7_A8_D8_SCK*%
%TO.N,unconnected-(U1-GPIO7_A8_D8_SCK-Pad13)*%
X129540000Y-75438000D03*
%TO.P,U1,14,GPIO44_D7_RX*%
%TO.N,unconnected-(U1-GPIO44_D7_RX-Pad14)*%
X127000000Y-75438000D03*
%TD*%
D11*
%TO.P,SW1,3,C*%
%TO.N,Net-(SW1-C)*%
X93980000Y-129540000D03*
%TO.P,SW1,2,B*%
%TO.N,VCC*%
X91480000Y-129540000D03*
D12*
%TO.P,SW1,1,A*%
%TO.N,unconnected-(SW1-A-Pad1)*%
X88980000Y-129540000D03*
%TD*%
D13*
%TO.P,R1,1*%
%TO.N,Net-(SW1-C)*%
X86900000Y-116840000D03*
%TO.P,R1,2*%
%TO.N,Net-(D1-A)*%
X88900000Y-116840000D03*
%TD*%
D14*
%TO.P,M1,4*%
%TO.N,Net-(U1-GPIO4_A3_D3)*%
X106680000Y-81280000D03*
%TO.P,M1,3*%
%TO.N,Net-(U1-GPIO3_A2_D2)*%
X106680000Y-88900000D03*
%TO.P,M1,2,-*%
%TO.N,Net-(M1--)*%
X83820000Y-88900000D03*
%TO.P,M1,1*%
%TO.N,Net-(U1-GPIO1_A0_D0)*%
X83820000Y-81280000D03*
%TD*%
D15*
%TO.P,D1,2,A*%
%TO.N,Net-(D1-A)*%
X106680000Y-115815000D03*
%TO.P,D1,1,K*%
%TO.N,GND*%
X106680000Y-117865000D03*
%TD*%
D16*
%TO.N,GND*%
X106680000Y-117865000D02*
X119435999Y-117865000D01*
X143633000Y-93667999D02*
X143633000Y-80133000D01*
X119435999Y-117865000D02*
X143633000Y-93667999D01*
X143633000Y-80133000D02*
X139700000Y-76200000D01*
D17*
%TO.N,Net-(SW1-C)*%
X86900000Y-116840000D02*
X86900000Y-122460000D01*
X86900000Y-122460000D02*
X93980000Y-129540000D01*
%TO.N,Net-(D1-A)*%
X88900000Y-116840000D02*
X105655000Y-116840000D01*
X105655000Y-116840000D02*
X106680000Y-115815000D01*
%TO.N,Net-(SW1-C)*%
X86900000Y-116840000D02*
X80670776Y-110610776D01*
X80670776Y-110610776D02*
X80670776Y-82688327D01*
X80670776Y-82688327D02*
X92239103Y-71120000D01*
X92239103Y-71120000D02*
X138067051Y-71120000D01*
X138067051Y-71120000D02*
X142240000Y-75292949D01*
X142240000Y-75292949D02*
X142240000Y-76200000D01*
%TO.N,Net-(M1--)*%
X83820000Y-88900000D02*
X104939103Y-88900000D01*
X104939103Y-88900000D02*
X110908102Y-94868999D01*
X110908102Y-94868999D02*
X137178052Y-94868999D01*
X137178052Y-94868999D02*
X139700000Y-92347051D01*
X139700000Y-92347051D02*
X139700000Y-91440000D01*
%TO.N,Net-(U1-GPIO1_A0_D0)*%
X83820000Y-81280000D02*
X85051000Y-80049000D01*
X85051000Y-80049000D02*
X130849000Y-80049000D01*
X130849000Y-80049000D02*
X142240000Y-91440000D01*
%TO.N,Net-(U1-GPIO3_A2_D2)*%
X106680000Y-88900000D02*
X112141000Y-94361000D01*
X112141000Y-94361000D02*
X136779000Y-94361000D01*
X136779000Y-94361000D02*
X137160000Y-93980000D01*
X137160000Y-93980000D02*
X137160000Y-91440000D01*
%TO.N,Net-(U1-GPIO4_A3_D3)*%
X106680000Y-81280000D02*
X124460000Y-81280000D01*
X124460000Y-81280000D02*
X134620000Y-91440000D01*
%TD*%
M02*
